<svg xmlns="http://www.w3.org/2000/svg" width="800" height="800" viewBox="0 0 800 800">
  <g>
    <path d="M349.02973,106.284a204.81864,204.81864,0,0,0-45.81077,14.441c13.04052,3.99263,26.00109,7.57258,39.7509,11.90051,24.48193,7.70154,52.74113,21.86145,85.2599,36.33344,33.30286,14.82276,65.24518,24.53867,89.80578,34.08694,7.365,2.86293,14.46167,5.52468,21.52744,8.08585C485.53869,141.28142,419.739,92.70186,349.02973,106.284Z" style="fill: #9ef7ea"/>
    <path d="M485.53611,683.77342c-19.51178-10.83788-38.17629-20.98452-58.83066-29.48562-27.91359-11.493-57.03166-19.3854-85.90858-25.53941-28.87563-6.15917-58.24518-10.11053-85.07679-14.44362-17.27173-2.79071-36.05488-3.53869-55.32163-3.56964,40.61494,43.00588,98.285,68.02945,157.27811,78.82863,5.26676.75571,10.48452,1.64554,15.70872,2.53021a398.78826,398.78826,0,0,0,40.78517,3.79661C437.6452,696.75978,461.87953,692.32868,485.53611,683.77342Z" style="fill: #54b2f5"/>
    <path d="M597.41741,474.10366c-25.26473-4.12675-49.4939-8.40567-77.50162-21.245-28.00772-12.83677-57.05616-32.05194-85.94985-47.87028-28.89368-15.81576-58.013-28.22954-85.58746-30.035-32.33179-2.115-66.27945-2.85777-99.74351-5.94768-31.23561-2.88356-62.32163-8.29476-91.96458-20.88908q-5.88062,29.89441-9.28905,62.45833c28.86144,9.77782,59.36585,12.59432,89.89605,13.19786,32.18477.63449,64.6468-.83567,95.284-.58032,29.20964.245,58.3058,10.40714,86.72491,25.02614,28.4191,14.61643,56.42554,33.66911,83.94192,49.93881,27.51638,16.27229,51.02724,23.66175,78.35534,29.44435,18.128,3.83272,37.311,6.79366,57.88409,11.27118A201.01076,201.01076,0,0,0,654.413,483.93306C633.53935,479.34979,615.24109,477.01818,597.41741,474.10366Z" style="fill: #61d9fa"/>
    <path d="M232.52647,202.053c27.97033,6.50737,56.677,7.374,84.64347,9.00147,27.96646,1.62491,55.30875,3.825,80.77078,11.818,25.54328,8.02137,51.24776,23.17169,77.4049,39.266s52.803,33.39055,80.2717,44.28517c14.91432,5.91672,31.52578,8.51142,49.57514,9.26713C599.37375,304.42725,593.221,293.285,586.83875,282.246a146.74761,146.74761,0,0,1-18.78057-5.00368c-27.59763-9.73655-52.57478-24.21885-78.25605-38.47419s-52.80561-28.09542-81.81149-38.63926c-28.07091-10.20854-55.56795-15.1658-82.38021-18.199s-53.24536-4.6787-80.06149-11.61679c-2.4451-.63449-4.71868-1.6017-7.10832-2.34709a245.26519,245.26519,0,0,0-23.16138,28.70411A140.31373,140.31373,0,0,0,232.52647,202.053Z" style="fill: #9ef7ea"/>
    <path d="M619.28788,344.20911c-26.96314.68607-51.44378-1.26382-72.70814-9.85777-27.39645-11.07516-54.486-28.92851-81.03128-45.17758-26.54531-16.25165-52.69986-31.35039-77.98909-37.94545-25.93274-6.76271-54.16486-8.27929-82.71422-10.00736-28.55065-1.7255-57.73707-3.371-85.89052-11.3563a158.98015,158.98015,0,0,1-19.49115-6.96646,378.29207,378.29207,0,0,0-26.54531,62.35c1.416.61643,2.72237,1.23545,4.1951,1.85188,31.08215,12.96831,63.66154,17.70375,96.10423,20.73949s64.82476,4.2067,96.00492,8.49594c26.83676,3.69086,54.85351,17.647,83.25973,33.811,28.4075,16.16138,57.25863,34.81428,85.41852,46.01325,28.16119,11.20412,54.179,14.54162,82.07973,16.76491,9.36514.74539,18.94952,1.42889,28.67575,2.26971-1.24706-4.168-2.63339-8.32829-4.23379-12.47309C637.08578,383.72272,628.62078,364.0175,619.28788,344.20911Z" style="fill: #61d9fa"/>
    <path d="M570.83986,566.74658c-28.98654-7.196-52.21884-17.15954-79.35608-35.89755s-54.366-37.64884-82.42018-51.37544-57.05874-22.5372-87.48577-21.325c-29.29476,1.171-60.44139,4.84893-91.51838,6.33972-29.05489,1.39536-58.14975.84082-85.60165-5.927-.2979,32.65289,4.93275,61.44728,14.65253,86.64107,14.52615.0258,29.22512-.8434,43.83509-1.99631,30.19232-2.38836,60.45171-6.31393,87.82881-6.07148,29.98083.26566,59.22528,7.45136,87.282,18.79734,28.05544,11.3434,55.32938,27.29844,82.4434,46.48266,27.11274,19.18164,50.19932,30.43734,79.84871,40.26932,4.1822,1.385,8.5759,2.64886,12.88835,3.95394a281.5737,281.5737,0,0,0,65.68494-69.60276C602.17349,573.5196,586.06111,570.52513,570.83986,566.74658Z" style="fill: #54b2f5"/>
    <path d="M418.28172,183.1705c-30.2568-12.59174-58.15491-23.63853-83.32162-29.68938-21.23341-5.10427-41.32423-8.90346-62.17333-15.26381-4.65162,3.20855-9.19491,6.57185-13.58087,10.175,24.35426,7.33013,47.75421,10.5,72.22583,15.20449,25.72124,4.94693,53.47878,13.78849,82.87671,25.5033,30.53793,12.16617,60.02871,24.10021,85.50106,36.3876,23.48249,11.32792,45.754,22.09358,70.88464,30.182-3.1531-4.94693-6.24687-9.95578-9.50829-14.78407-19.20872-6.49447-36.81575-14.26823-55.54861-22.563C480.35317,207.12885,449.62566,196.21618,418.28172,183.1705Z" style="fill: #9ef7ea"/>
    <path d="M527.71921,663.09841c-28.922-11.76639-52.51029-24.03057-79.9235-40.41118a428.60812,428.60812,0,0,0-83.74849-38.86881c-28.36365-9.49152-57.23284-15.60427-86.41539-17.52836-27.07534-1.77966-56.56869.87435-86.39219,2.67207q-10.27947.619-20.61439,1.03684c2.55342,4.6168,5.15972,9.1717,8.02781,13.50478,1.99632-.09285,4.00295-.14443,5.99539-.23986,29.594-1.416,58.801-3.24208,85.5217-.64223a467.65513,467.65513,0,0,1,85.96274,16.43993,444.58542,444.58542,0,0,1,84.48357,34.31134c25.542,13.61827,47.99794,25.79475,73.78238,37.783,4.72-2.43478,9.37675-5.063,13.98839-7.80987C528.17444,663.25832,527.932,663.1861,527.71921,663.09841Z" style="fill: #54b2f5"/>
    <path d="M610.4992,439.81038c-25.41948-3.56447-50.17481-7.46425-78.42885-18.7767-28.25275-11.315-57.57845-30.32644-86.50051-46.51877s-57.53331-29.80544-84.69634-32.43882c-32.59229-3.15954-66.19175-4.03131-99.63776-7.36882-32.63613-3.25755-65.18843-8.8983-96.19579-22.76418-1.20965,4.5549-2.31742,9.22329-3.42778,13.89683,30.25294,13.67243,62.0031,19.52468,93.94671,22.70485,33.60076,3.34782,67.41172,3.87914,100.4025,6.45836,27.24943,2.1227,55.95741,15.67649,84.99424,31.923,29.03554,16.24391,58.4541,35.4694,86.61787,46.87986,28.16247,11.41045,53.1667,15.12969,77.95814,19.0372,15.79255,2.48895,31.90234,4.769,50.02263,8.65328-.049-4.99079-.30306-9.98673-.79826-14.99558C639.144,443.576,624.67587,441.80154,610.4992,439.81038Z" style="fill: #61d9fa"/>
  </g>
</svg>
